<svg width="350" height="175" viewBox="0 0 350 175" fill="none" xmlns="http://www.w3.org/2000/svg">
<path d="M299.631 169.474C299.285 169.472 298.942 169.542 298.622 169.68C298.302 169.819 298.012 170.022 297.767 170.279C297.522 170.536 297.328 170.841 297.197 171.177C297.065 171.513 296.998 171.873 297 172.237C296.998 172.6 297.065 172.96 297.197 173.296C297.328 173.632 297.522 173.938 297.767 174.195C298.012 174.452 298.302 174.655 298.622 174.793C298.942 174.931 299.285 175.002 299.631 175C300.329 174.999 300.997 174.707 301.49 174.189C301.984 173.671 302.261 172.969 302.262 172.237C302.261 171.504 301.984 170.802 301.49 170.284C300.997 169.767 300.329 169.475 299.631 169.474ZM309.458 170.038C308.062 170.038 307.015 169.051 307.015 167.5C307.015 165.921 308.062 164.934 309.458 164.934C310.105 164.921 310.731 165.174 311.203 165.639C311.319 165.749 311.465 165.816 311.619 165.831C311.774 165.847 311.93 165.809 312.062 165.724L315.016 163.806C315.103 163.753 315.178 163.68 315.236 163.593C315.294 163.506 315.333 163.407 315.351 163.302C315.369 163.198 315.365 163.09 315.339 162.987C315.314 162.885 315.268 162.789 315.204 162.707C313.915 161.015 311.874 160 309.458 160C305.189 160 302.128 163.13 302.128 167.5C302.128 171.842 305.189 174.972 309.458 174.972C311.874 174.972 313.915 173.957 315.204 172.265C315.268 172.183 315.314 172.087 315.339 171.984C315.365 171.882 315.369 171.774 315.351 171.67C315.333 171.565 315.294 171.466 315.236 171.379C315.178 171.292 315.103 171.219 315.016 171.165L312.062 169.248C311.929 169.16 311.77 169.124 311.614 169.144C311.457 169.165 311.312 169.241 311.203 169.361C310.722 169.806 310.1 170.047 309.458 170.038ZM321.621 160C317.378 160 314.318 163.13 314.318 167.5C314.318 171.87 317.378 175 321.621 175C325.863 175 328.923 171.87 328.923 167.5C328.923 163.13 325.863 160 321.621 160ZM321.621 170.038C320.224 170.038 319.177 169.079 319.177 167.5C319.177 165.921 320.224 164.934 321.621 164.934C323.017 164.934 324.037 165.921 324.037 167.5C324.037 169.079 323.017 170.038 321.621 170.038ZM345.14 160C343.234 160 341.972 160.846 341.113 161.889C340.469 160.818 339.314 160 337.381 160C335.77 160 334.723 160.648 334.025 161.494V161.1C334.025 161 334.007 160.9 333.97 160.808C333.934 160.715 333.881 160.631 333.813 160.56C333.746 160.49 333.666 160.434 333.578 160.395C333.49 160.357 333.395 160.338 333.3 160.338H330.132C329.879 160.343 329.639 160.453 329.463 160.643C329.287 160.833 329.189 161.088 329.192 161.353V173.618C329.189 173.884 329.287 174.139 329.463 174.329C329.639 174.519 329.879 174.629 330.132 174.633H333.058C333.185 174.634 333.311 174.608 333.429 174.557C333.546 174.506 333.653 174.432 333.743 174.337C333.833 174.243 333.904 174.131 333.952 174.007C334.001 173.884 334.025 173.752 334.025 173.618V166.682C334.025 165.583 334.696 164.962 335.609 164.962C336.549 164.962 337.166 165.583 337.166 166.682V173.618C337.166 173.752 337.19 173.884 337.239 174.007C337.287 174.131 337.358 174.243 337.448 174.337C337.538 174.432 337.645 174.506 337.762 174.557C337.88 174.608 338.006 174.634 338.133 174.633H341.059C341.186 174.634 341.312 174.608 341.43 174.557C341.547 174.506 341.654 174.432 341.744 174.337C341.834 174.243 341.905 174.131 341.953 174.007C342.002 173.884 342.026 173.752 342.026 173.618V166.682C342.026 165.583 342.67 164.962 343.583 164.962C344.523 164.962 345.167 165.583 345.167 166.682V173.618C345.167 173.752 345.191 173.884 345.24 174.007C345.288 174.131 345.359 174.243 345.449 174.337C345.539 174.432 345.646 174.506 345.763 174.557C345.881 174.608 346.007 174.634 346.134 174.633H349.06C349.313 174.629 349.553 174.519 349.729 174.329C349.905 174.139 350.002 173.884 350 173.618V165.695C350 163.609 349.248 160 345.14 160Z" fill="white"/>
<path d="M26.0152 138.612H2.30452C1.70054 138.607 1.11901 138.84 0.687139 139.261C0.255271 139.682 0.00821744 140.256 2.03032e-05 140.858V146.829C-0.00125416 147.131 0.0574835 147.43 0.172844 147.709C0.288204 147.989 0.457904 148.242 0.67215 148.456C0.886397 148.669 1.14095 148.838 1.42112 148.953C1.70129 149.068 2.00153 149.127 2.30452 149.126H8.39863V172.04C8.39326 172.642 8.62731 173.221 9.04958 173.652C9.47185 174.082 10.048 174.328 10.6519 174.337H17.6166C17.9196 174.338 18.2199 174.279 18.5 174.164C18.7802 174.049 19.0347 173.88 19.249 173.667C19.4632 173.453 19.6329 173.2 19.7483 172.92C19.8637 172.641 19.9224 172.342 19.9211 172.04V149.126H26.0152C26.6192 149.117 27.1953 148.871 27.6176 148.441C28.0399 148.01 28.2739 147.431 28.2685 146.829V140.858C28.2633 140.264 28.0242 139.696 27.6028 139.276C27.1813 138.856 26.6112 138.618 26.0152 138.612ZM53.7204 174.337H62.4775C62.7158 174.333 62.949 174.268 63.1543 174.147C63.3597 174.027 63.5301 173.855 63.6488 173.65C63.7676 173.444 63.8307 173.211 63.8318 172.973C63.8329 172.736 63.7721 172.502 63.6554 172.295L57.2028 161.017C60.4291 159.077 62.2727 155.964 62.2727 151.422C62.2727 143.154 57.0491 138.612 47.1142 138.612H34.2602C33.6562 138.607 33.0747 138.84 32.6428 139.261C32.211 139.682 31.9639 140.256 31.9557 140.858V172.04C31.9544 172.342 32.0132 172.641 32.1285 172.92C32.2439 173.2 32.4136 173.453 32.6278 173.667C32.8421 173.88 33.0966 174.049 33.3768 174.164C33.657 174.279 33.9572 174.338 34.2602 174.337H41.2249C41.8289 174.328 42.405 174.082 42.8273 173.652C43.2495 173.221 43.4836 172.642 43.4782 172.04V163.262H46.7045L51.672 173.061C51.8592 173.443 52.1506 173.766 52.5127 173.991C52.8749 174.217 53.2933 174.336 53.7204 174.337ZM43.4782 148.666H47.1142C49.5211 148.666 50.6478 149.534 50.6478 151.422C50.6478 153.259 49.5211 154.127 47.1142 154.127H43.4782V148.666ZM67.3426 140.858V172.04C67.3413 172.342 67.4 172.641 67.5154 172.92C67.6307 173.2 67.8004 173.453 68.0147 173.667C68.2289 173.88 68.4835 174.049 68.7637 174.164C69.0438 174.279 69.3441 174.338 69.6471 174.337H76.5606C76.8635 174.338 77.1638 174.279 77.4439 174.164C77.7241 174.049 77.9787 173.88 78.1929 173.667C78.4072 173.453 78.5769 173.2 78.6922 172.92C78.8076 172.641 78.8663 172.342 78.865 172.04V140.858C78.8568 140.256 78.6098 139.682 78.1779 139.261C77.7461 138.84 77.1645 138.607 76.5606 138.612H69.6471C69.0431 138.607 68.4615 138.84 68.0297 139.261C67.5978 139.682 67.3508 140.256 67.3426 140.858ZM108.465 155.607V155.505C111.282 154.127 112.92 151.83 112.92 148.207C112.92 141.47 107.953 138.612 98.018 138.612H86.2394C85.6434 138.618 85.0733 138.856 84.6519 139.276C84.2305 139.696 83.9914 140.264 83.9862 140.858V172.04C83.9808 172.642 84.2148 173.221 84.6371 173.652C85.0594 174.082 85.6355 174.328 86.2394 174.337H99.4007C109.284 174.337 114.303 171.07 114.303 163.721C114.303 159.639 112.101 157.036 108.465 155.607ZM97.5571 146.829C99.964 146.829 101.295 147.697 101.295 149.585C101.295 151.473 99.964 152.29 97.5571 152.29H95.4574V146.829H97.5571ZM98.9398 165.661H95.4574V160.098H98.9398C101.347 160.098 102.627 160.966 102.627 162.854C102.627 164.691 101.347 165.661 98.9398 165.661ZM135.504 138C124.75 138 116.608 145.961 116.608 156.474C116.608 167.039 124.75 175 135.504 175C146.259 175 154.401 167.039 154.401 156.474C154.401 145.961 146.259 138 135.504 138ZM135.504 163.823C131.254 163.823 128.13 160.812 128.13 156.474C128.13 152.188 131.254 149.126 135.504 149.126C139.755 149.126 142.879 152.188 142.879 156.474C142.879 160.812 139.755 163.823 135.504 163.823ZM179.904 140.858V156.679L169.406 139.888C169.163 139.497 168.824 139.175 168.421 138.951C168.017 138.728 167.563 138.611 167.102 138.612H160.495C160.199 138.611 159.905 138.668 159.631 138.78C159.357 138.892 159.108 139.057 158.898 139.266C158.689 139.475 158.523 139.723 158.41 139.997C158.298 140.27 158.24 140.563 158.242 140.858V172.04C158.242 173.316 159.215 174.337 160.495 174.337H167.46C167.763 174.338 168.063 174.279 168.344 174.164C168.624 174.049 168.878 173.88 169.093 173.667C169.307 173.453 169.476 173.2 169.592 172.92C169.707 172.641 169.766 172.342 169.765 172.04V156.27L180.212 173.061C180.463 173.444 180.804 173.761 181.205 173.983C181.607 174.205 182.057 174.327 182.516 174.337H189.122C189.425 174.338 189.726 174.279 190.006 174.164C190.286 174.049 190.541 173.88 190.755 173.667C190.969 173.453 191.139 173.2 191.254 172.92C191.369 172.641 191.428 172.342 191.427 172.04V140.858C191.419 140.256 191.172 139.682 190.74 139.261C190.308 138.84 189.726 138.607 189.122 138.612H182.158C181.861 138.611 181.568 138.668 181.293 138.78C181.019 138.892 180.77 139.057 180.561 139.266C180.351 139.475 180.185 139.723 180.072 139.997C179.96 140.27 179.903 140.563 179.904 140.858ZM208.071 164.742V160.455H217.442C217.745 160.456 218.045 160.398 218.326 160.283C218.606 160.168 218.86 159.999 219.075 159.785C219.289 159.572 219.458 159.318 219.574 159.039C219.689 158.76 219.748 158.461 219.747 158.159V154.433C219.738 153.831 219.491 153.257 219.06 152.836C218.628 152.415 218.046 152.182 217.442 152.188H208.071V148.207H219.081C219.677 148.202 220.247 147.963 220.668 147.543C221.09 147.123 221.329 146.555 221.334 145.961V140.858C221.329 140.264 221.09 139.696 220.668 139.276C220.247 138.856 219.677 138.618 219.081 138.612H198.853C198.249 138.607 197.667 138.84 197.235 139.261C196.803 139.682 196.556 140.256 196.548 140.858V172.04C196.547 172.342 196.606 172.641 196.721 172.92C196.836 173.2 197.006 173.453 197.22 173.667C197.434 173.88 197.689 174.049 197.969 174.164C198.249 174.279 198.55 174.338 198.853 174.337H219.542C219.845 174.338 220.145 174.279 220.425 174.164C220.705 174.049 220.96 173.88 221.174 173.667C221.388 173.453 221.558 173.2 221.673 172.92C221.789 172.641 221.848 172.342 221.846 172.04V166.988C221.838 166.386 221.591 165.812 221.159 165.391C220.727 164.97 220.146 164.737 219.542 164.742H208.071ZM247.657 174.337H256.414C256.652 174.333 256.885 174.268 257.091 174.147C257.296 174.027 257.466 173.855 257.585 173.65C257.704 173.444 257.767 173.211 257.768 172.973C257.769 172.736 257.708 172.502 257.592 172.295L251.139 161.017C254.365 159.077 256.209 155.964 256.209 151.422C256.209 143.154 250.985 138.612 241.05 138.612H228.196C227.592 138.607 227.011 138.84 226.579 139.261C226.147 139.682 225.9 140.256 225.892 140.858V172.04C225.891 172.342 225.949 172.641 226.065 172.92C226.18 173.2 226.35 173.453 226.564 173.667C226.778 173.88 227.033 174.049 227.313 174.164C227.593 174.279 227.893 174.338 228.196 174.337H235.161C235.765 174.328 236.341 174.082 236.764 173.652C237.186 173.221 237.42 172.642 237.414 172.04V163.262H240.641L245.608 173.061C245.796 173.443 246.087 173.766 246.449 173.991C246.811 174.217 247.23 174.336 247.657 174.337ZM237.414 148.666H241.05C243.457 148.666 244.584 149.534 244.584 151.422C244.584 153.259 243.457 154.127 241.05 154.127H237.414V148.666ZM286.065 174.337H294.208C294.495 174.334 294.778 174.264 295.033 174.13C295.287 173.997 295.507 173.805 295.672 173.571C295.837 173.336 295.944 173.065 295.983 172.782C296.022 172.498 295.993 172.208 295.898 171.938L285.348 140.45C285.156 139.912 284.802 139.447 284.334 139.118C283.867 138.79 283.309 138.613 282.736 138.612H272.699C272.128 138.62 271.573 138.8 271.107 139.128C270.641 139.455 270.285 139.916 270.087 140.45L259.538 171.938C259.128 173.112 260.05 174.337 261.279 174.337H269.37C269.874 174.342 270.364 174.179 270.764 173.874C271.163 173.569 271.448 173.138 271.572 172.652L272.648 168.825H282.787L283.863 172.652C284.17 173.673 285.041 174.337 286.065 174.337ZM274.85 160.863L277.718 150.503L280.585 160.863H274.85Z" fill="white"/>
<path d="M224.409 74.8086C221.338 72.9715 218.787 70.3812 216.998 67.2831C208.969 52.3853 200.151 40.8463 190.787 32.9852C183.646 26.9896 176.278 23.1004 168.286 21.1108L164.239 16.9615C162.692 15.3775 153.515 7.4932 124.473 7.8732C116.581 7.87025 104.574 5.48904 88.7833 0.795291L88.7059 0.772345C88.0046 0.563742 87.4978 0.4132 87.1814 0.326629C82.7669 -0.888659 79.4788 1.48403 78.2925 4.20074C77.4924 6.03141 77.083 8.97358 79.6807 12.5934C80.6382 13.9279 81.9608 15.2863 83.6341 16.6568C73.6223 14.8173 63.8314 11.6079 56.1426 9.08762C47.6241 6.29651 41.4672 4.28036 37.1168 4.57014C32.6218 4.87575 29.4881 8.41192 29.6659 12.9777C29.729 14.1759 29.969 15.3581 30.3781 16.4861C28.8672 17.5385 27.468 19.4145 27.0966 22.751C26.8103 25.3286 27.2274 27.9476 27.4765 29.5123C28.3343 34.8943 32.2275 43.4215 40.5851 51.2138C45.2413 55.555 50.8145 59.2478 57.1493 62.1897C63.1296 64.9667 69.814 67.08 77.0776 68.4947C76.506 69.6173 76.215 70.8616 76.2295 72.1211C76.2295 75.5896 78.6354 78.5982 80.6542 80.5122C81.7434 81.5437 84.3865 83.0788 88.6072 85.4947C88.3451 87.4775 88.2323 89.4773 88.2696 91.4771C88.1015 101.314 84.8174 106.378 84.5375 106.791L80.6714 111.716L85.7007 115.562C86.3644 116.069 102.289 127.991 131.2 127.991H131.305C132.407 127.991 133.538 127.972 134.668 127.935C151.29 127.641 166.408 125.195 179.603 120.664C190.296 116.993 199.772 111.947 207.77 105.666C221.665 94.7519 226.477 83.7829 226.979 82.5681L229.047 77.578L224.409 74.8086Z" fill="#282828"/>
<path d="M132.911 28.6221C132.911 28.6221 140.496 25.3053 153.676 25.6843C166.855 26.0632 188.568 28.0535 211.324 70.3191C213.644 74.382 216.975 77.7771 220.994 80.1756C220.994 80.1756 204.306 120.451 134.332 121.683C105.034 122.631 89.2949 110.595 89.2949 110.595C89.2949 110.595 94.1301 104.436 94.3202 91.4527C93.5622 63.3064 132.911 28.6221 132.911 28.6221Z" fill="#282828"/>
<path d="M130.997 125.527C102.918 125.528 87.6515 114.109 86.9916 113.604L83.9423 111.273L86.3117 108.255C86.3291 108.231 90.3451 102.753 90.5272 91.4717C89.8047 61.9114 128.744 27.2413 130.403 25.7782L130.848 25.3858L131.391 25.148C131.732 24.9992 139.919 21.4825 153.785 21.8957C165.576 22.234 190.106 22.9363 214.64 68.4787C216.638 71.9559 219.496 74.8622 222.939 76.9195L225.752 78.5988L224.498 81.6246C223.779 83.3629 206.036 124.211 134.401 125.472C133.247 125.51 132.112 125.528 130.997 125.527ZM94.3776 109.316C99.9016 112.423 113.537 118.56 134.212 117.893C169.049 117.279 189.834 106.634 201.145 97.8125C209.42 91.358 213.976 84.9074 216.063 81.4C212.802 78.8953 210.071 75.7674 208.03 72.1983L207.984 72.1148C185.52 30.3914 164.734 29.7945 153.566 29.4732C143.385 29.1907 136.763 31.2463 134.932 31.904C130.491 35.9552 97.4546 66.938 98.1119 91.3505L98.1138 91.4291L98.1129 91.5078C97.9892 99.959 96.0009 105.871 94.3776 109.316Z" fill="#282828"/>
<path d="M132.624 28.1748C132.624 28.1748 140.21 24.858 153.389 25.237C166.569 25.6159 188.281 27.6062 211.036 69.8718C213.357 73.9346 216.688 77.3297 220.707 79.7283C220.707 79.7283 204.019 120.004 134.045 121.236C104.747 122.183 89.0077 110.148 89.0077 110.148C89.0077 110.148 93.8429 103.988 94.033 91.0054C93.275 62.8591 132.624 28.1748 132.624 28.1748Z" fill="url(#paint0_radial)"/>
<path d="M132.624 28.1748C132.624 28.1748 140.21 24.858 153.389 25.237C166.569 25.6159 188.281 27.6062 211.036 69.8718C213.357 73.9346 216.688 77.3297 220.707 79.7283C220.707 79.7283 204.019 120.004 134.045 121.236C104.747 122.183 89.0077 110.148 89.0077 110.148C89.0077 110.148 93.8429 103.988 94.033 91.0054C93.275 62.8591 132.624 28.1748 132.624 28.1748Z" fill="url(#paint1_radial)"/>
<path d="M190.267 108.591C213.307 95.0492 217.27 82.0566 217.27 82.0566C216.082 81.3901 214.962 80.6087 213.926 79.7235C213.335 79.2288 200.439 97.1452 172.776 106.091C202.532 92.9632 209.876 79.9851 211.576 77.545C210.328 75.8847 209.825 74.5248 208.814 72.711C187.647 33.3974 167.795 27.6024 151.166 27.1287C150.705 27.1155 150.236 27.1087 149.77 27.1087C142.575 27.1466 135.459 28.6062 128.831 31.4035C130.859 29.4494 132.154 28.297 132.296 28.1729C133.88 27.5453 135.513 27.0484 137.179 26.687C141.708 25.6743 146.338 25.179 150.98 25.2106C151.668 25.2106 152.371 25.221 153.066 25.241C156.884 25.2858 160.689 25.6842 164.433 26.4313C169.319 27.4658 174.002 29.2944 178.295 31.8443C184.177 35.4246 189.461 39.9031 193.956 45.1173C200.533 52.6848 206.219 60.9818 210.903 69.8454C213.169 73.8445 216.464 77.1648 220.447 79.4622L220.817 79.723C220.691 80.0161 217.351 93.9527 190.267 108.591Z" fill="url(#paint2_linear)"/>
<path d="M132.095 121.546C125.746 121.636 119.403 121.13 113.149 120.035C108.546 119.069 104.035 117.709 99.6656 115.969C95.8575 114.537 92.2299 112.666 88.8567 110.393C89.8927 108.759 90.7617 107.026 91.4508 105.219C93.1623 100.596 94.0372 95.7067 94.0345 90.7781C93.8733 84.7947 95.5336 78.0368 98.965 70.6945C105.177 87.0462 118.029 109.882 153.758 109.882C156.257 109.882 158.857 109.787 161.488 109.59C159.741 110.494 155.439 111.523 150.457 112.717C140.696 115.054 131.643 116.517 129.67 118.403C127.697 120.29 132.095 121.546 132.095 121.546Z" fill="#AD5F00"/>
<path d="M159.554 21.3251C159.554 21.3251 152.159 13.7437 124.283 14.1229C109.965 14.1229 88.063 7.11015 85.3134 6.3524C82.5638 5.59465 82.7534 9.29023 91.4764 14.6918C100.199 20.0934 101.906 19.5245 101.906 19.5245C101.906 19.5245 123.05 19.5245 129.877 26.3476C134.333 24.168 147.323 19.714 159.554 21.3251Z" fill="#282828"/>
<path d="M129.112 30.9428L127.196 29.0277C123.087 24.9215 109.769 23.355 102.151 23.3161C100.286 23.463 97.0072 22.575 89.4787 17.9134C81.9106 13.2263 78.7512 8.82443 80.3432 5.18447C81.1462 3.34702 83.309 1.86855 86.3223 2.69862C86.6267 2.78206 87.1558 2.93938 87.8753 3.15355C103.903 7.91666 116.152 10.333 124.283 10.333C152.903 9.95871 161.395 17.7834 162.27 18.679L169.912 26.5124L159.059 25.0833C147.493 23.5576 135.008 28.058 131.543 29.7534L129.112 30.9428ZM119.953 17.7389C123.825 18.6562 127.6 19.9943 130.455 21.9437C133.737 20.6198 137.122 19.5641 140.575 18.787C136.25 18.1918 130.898 17.826 124.335 17.9133C122.928 17.9128 121.461 17.851 119.953 17.7389ZM101.79 15.7346H101.906C102.552 15.7346 104.608 15.752 107.405 15.9413C103.792 15.2315 100.266 14.4042 97.082 13.5921C100.047 15.224 101.389 15.6355 101.79 15.7339V15.7346Z" fill="#282828"/>
<path d="M159.554 21.3251C159.554 21.3251 152.159 13.7438 124.283 14.1229C109.965 14.1229 88.063 7.11018 85.3134 6.35243C82.5638 5.59468 82.7534 9.29026 91.4764 14.6919C100.199 20.0935 101.906 19.5245 101.906 19.5245C101.906 19.5245 123.05 19.5245 129.877 26.3476C134.333 24.168 147.323 19.714 159.554 21.3251Z" fill="#AD5F00"/>
<path d="M159.554 21.3252C158.447 21.1793 157.295 21.0788 156.129 21.0267C151.489 18.7352 142.544 16.0044 126.287 16.0044C125.629 16.0044 124.96 16.0044 124.286 16.0186C118.833 16.0186 111.641 15.0019 102.914 12.9965C95.8682 11.3779 89.7346 9.55559 86.7953 8.67997H86.7859C86.1013 8.47624 85.6073 8.32935 85.3181 8.24973C85.1065 8.18937 84.8877 8.15751 84.6676 8.15499C84.4803 8.14928 84.2946 8.19032 84.1272 8.27441C83.7479 7.57125 83.6531 6.98803 83.8627 6.63114C83.9515 6.50313 84.073 6.40125 84.2146 6.33607C84.3561 6.27089 84.5125 6.24481 84.6676 6.26052C84.8877 6.26307 85.1065 6.29493 85.3181 6.35527C85.6093 6.43575 86.106 6.58369 86.7953 6.78829C92.9001 8.60314 111.479 14.1261 124.287 14.1261C124.959 14.1165 125.632 14.1129 126.289 14.1129C131.731 14.0741 137.169 14.4511 142.554 15.2405C146.026 15.7469 149.443 16.5776 152.76 17.7215C157.672 19.4804 159.482 21.2535 159.557 21.3274L159.554 21.3252Z" fill="#FFFFBC"/>
<path d="M161.45 76.6685C161.45 76.6685 169.604 84.439 174.44 84.439C179.276 84.439 181.457 81.5011 180.793 76.6685C179.086 68.329 157.753 68.1396 146.659 55.9147C135.566 43.6899 135.187 22.7468 100.105 24.3577C74.22 25.1158 45.6803 10.2375 37.3367 10.8062C28.993 11.3748 53.4553 45.1113 93.7521 44.7324C100.093 45.3077 106.485 44.5656 112.525 42.5528C112.525 42.5528 112.525 47.9544 91.0021 47.9544C66.1601 47.9544 45.7758 35.1613 35.7245 22.7468C34.5867 20.662 32.1216 20.1881 33.449 28.5275C34.7764 36.867 48.2404 63.1169 97.26 64.3484C103.777 64.6592 110.289 63.6603 116.413 61.4105C116.982 63.3054 115.275 67.8546 96.4067 68.8022C87.8733 69.1812 82.2791 69.7498 82.2791 72.119C82.2791 74.4882 89.2955 82.5433 103.423 81.7843C117.55 81.0253 134.522 71.076 134.522 71.076C134.522 71.076 130.445 82.5426 106.931 85.8594C104.656 85.8594 97.2607 93.0616 111.672 94.7673C116.697 94.7673 124.093 92.0191 140.97 76.7618C140.591 79.6997 136.513 87.4701 124.282 94.7673C123.713 95.715 121.533 102.917 127.79 101.59C134.143 100.264 145.995 85.1013 149.693 78.0878C150.262 82.5419 141.539 95.7148 144.667 99.2206C147.796 102.726 156.709 79.4146 156.709 79.4146C156.709 79.4146 156.33 89.0798 161.165 89.0798C162.398 88.3247 161.45 76.6685 161.45 76.6685Z" fill="#282828"/>
<path d="M126.377 105.545C123.346 105.545 121.713 103.986 120.954 102.923C119.604 101.033 119.491 98.7214 119.783 96.774C116.409 98.2059 113.879 98.5585 111.672 98.5585L111.226 98.5329C100.95 97.3161 99.0277 93.0849 99.2247 89.7481C99.3434 88.2462 99.898 86.8116 100.821 85.6202C90.3814 85.4116 84.3548 80.8194 82.1428 78.7241C80.7775 77.4296 78.4866 74.8519 78.4866 72.1199C78.4866 69.5186 79.9497 67.9228 82.3087 66.9191C43.6324 61.303 31.1887 38.447 29.7039 29.1235C29.2441 26.2359 28.168 19.4756 32.7769 17.9051C32.9766 17.8375 33.1806 17.7834 33.3875 17.7431C32.4876 15.9644 31.9766 14.3154 31.9217 12.8807C31.7956 9.64826 33.9166 7.23941 37.0786 7.0242C40.9367 6.7664 46.9082 8.71772 55.1704 11.4252C67.5297 15.4756 84.4581 21.0222 99.9937 20.569C128.574 19.2517 136.223 32.2735 142.956 43.761C145.025 47.2911 146.979 50.6249 149.468 53.3684C154.461 58.8705 162.086 61.7495 168.813 64.2882C176.557 67.2118 183.246 69.7373 184.508 75.9094L184.55 76.1538C185.178 80.7272 183.728 83.501 182.401 85.022C181.124 86.4861 178.706 88.2309 174.44 88.2309C171.619 88.2309 168.422 86.6851 165.616 84.8477C165.549 90.8379 164.377 91.56 163.154 92.3115L162.239 92.8735H161.166C160.22 92.8796 159.282 92.6902 158.413 92.3172C157.543 91.9443 156.76 91.3958 156.113 90.7061L156.099 90.6919C150.585 102.503 147.564 103.056 146.28 103.292C145.469 103.441 144.633 103.378 143.854 103.107C143.075 102.836 142.38 102.367 141.837 101.747C140.676 100.445 140.203 98.8814 140.187 97.133C136.255 101.241 132.082 104.569 128.565 105.303C127.847 105.46 127.113 105.541 126.377 105.545ZM127.395 97.3103C127.358 97.4723 127.325 97.6406 127.3 97.804C128.932 97.2895 131.446 95.2178 134.162 92.4299C132.024 94.2142 129.763 95.8451 127.394 97.3103H127.395ZM107.211 89.8399C107.906 90.1735 109.288 90.6501 111.883 90.9752C114.407 90.9203 118.579 89.8409 127.084 83.4413C122.547 86.02 116.234 88.3701 107.511 89.6068C107.405 89.6764 107.304 89.7544 107.211 89.8399ZM146.049 67.0604L144.732 77.2472C144.543 78.4487 144.184 79.617 143.664 80.7166C144.633 79.2995 145.526 77.832 146.339 76.3205L151.937 65.7048L153.456 77.6093C153.478 77.7798 153.493 77.9542 153.502 78.1308L157.815 79.013C157.773 78.3194 157.723 77.6314 157.67 76.9736L156.91 67.5993C152.228 65.3951 147.563 62.5492 143.851 58.4592C140.832 55.1328 138.585 51.2987 136.412 47.5904C130.216 37.0215 124.355 27.0357 100.278 28.1446C83.3535 28.6268 65.6988 22.8539 52.806 18.6297C48.0521 17.0718 43.4886 15.5764 40.4175 14.9224C44.7421 22.4495 64.0986 41.1783 93.7163 40.9414L93.9059 40.9403L94.0946 40.9577C99.9151 41.4932 105.784 40.8119 111.326 38.9572L116.318 37.2941V42.5535C116.318 45.987 113.03 51.7458 91.0023 51.7458C67.9569 51.7458 49.1572 41.3575 37.9434 30.6942C41.466 40.3721 56.6838 59.5375 97.3549 60.5589C103.393 60.8646 109.431 59.9442 115.104 57.8534L118.886 56.4627L120.045 60.3206C120.588 62.1306 120.224 64.1264 119.044 65.798C116.255 69.7479 108.914 71.9692 96.5981 72.588C94.7842 72.6687 90.2796 72.8686 87.4389 73.3206C89.8245 75.5021 95.0641 78.438 103.219 78.0001C116.239 77.3007 132.443 67.9002 132.605 67.8051L141.577 62.5581L138.096 72.3464C138.028 72.5388 137.388 74.2445 135.517 76.5397C136.451 75.7238 137.421 74.8608 138.426 73.9507L146.049 67.0604ZM164.067 73.9224C167.413 77.1036 172.496 80.6479 174.44 80.6479C175.528 80.6479 176.346 80.4261 176.684 80.0376C177.072 79.595 177.207 78.5904 177.056 77.3359C176.49 75.2898 170.992 73.2135 166.133 71.3788C163.555 70.4054 160.749 69.3462 157.924 68.0687L164.067 73.9224Z" fill="#282828"/>
<path d="M161.45 76.8701C161.45 76.8701 169.605 84.6406 174.44 84.6406C179.276 84.6406 181.457 81.7027 180.793 76.8701C179.086 68.5306 157.753 68.3412 146.659 56.1163C135.566 43.8915 135.186 22.9487 100.105 24.5593C74.2199 25.3174 45.6803 10.4391 37.3366 11.0077C28.9929 11.5764 53.4552 45.3129 93.752 44.934C100.093 45.5093 106.485 44.7672 112.525 42.7544C112.525 42.7544 112.525 48.156 91.0022 48.156C66.1603 48.156 45.7759 35.3627 35.7246 22.9487C34.5868 20.8639 32.1217 20.39 33.4492 28.7295C34.7766 37.0689 48.2405 63.3185 97.2601 64.5505C103.777 64.8614 110.289 63.8624 116.413 61.6127C116.982 63.5075 115.275 68.0568 96.4068 69.0044C87.8734 69.3835 82.2792 69.9519 82.2792 72.3211C82.2792 74.6904 89.2956 82.7454 103.423 81.9864C117.551 81.2275 134.523 71.2781 134.523 71.2781C134.523 71.2781 130.446 82.7447 106.931 86.0615C104.656 86.0615 97.2608 93.2637 111.672 94.9696C116.697 94.9696 124.093 92.2214 140.97 76.964C140.591 79.9018 136.514 87.6723 124.282 94.9696C123.714 95.9173 121.533 103.12 127.791 101.793C134.143 100.466 145.995 85.3036 149.693 78.2902C150.262 82.7442 141.539 95.9171 144.668 99.4229C147.796 102.929 156.709 79.6169 156.709 79.6169C156.709 79.6169 156.33 89.2822 161.166 89.2822C162.399 88.5263 161.45 76.8701 161.45 76.8701Z" fill="url(#paint3_linear)"/>
<path d="M126.388 101.883C125.897 101.928 125.403 101.834 124.963 101.611C124.522 101.389 124.153 101.048 123.898 100.626C123.435 99.5824 123.317 98.4188 123.56 97.3035C123.678 96.4698 123.922 95.6587 124.282 94.8974L124.412 94.8187C124.337 95.3352 124.367 95.8616 124.5 96.3665C124.632 96.8713 124.866 97.3441 125.186 97.7565C125.469 98.0309 125.807 98.243 126.177 98.3789C126.547 98.5149 126.942 98.5718 127.336 98.5459C127.807 98.5401 128.277 98.486 128.738 98.3844C135.849 97.5742 149.742 78.6039 149.693 78.2146C146.855 83.1689 143.52 87.8208 139.737 92.0978C134.832 97.7165 130.588 101.132 127.79 101.717C127.33 101.82 126.86 101.875 126.388 101.883ZM145.405 99.7106C145.263 99.7079 145.124 99.6743 144.997 99.6123C144.869 99.5502 144.757 99.4612 144.668 99.3515C143.624 98.1821 143.768 95.918 145.132 92.0109C144.76 93.9252 144.918 95.2329 145.617 96.0195C145.706 96.1296 145.818 96.2188 145.946 96.2809C146.073 96.3429 146.212 96.3763 146.354 96.3787C148.21 96.3787 149.777 94.887 148.689 96.5597C147.33 98.6511 146.225 99.7106 145.405 99.7106ZM111.672 94.8974C109.57 94.7164 107.511 94.2047 105.569 93.3812C104.525 92.9772 103.672 92.1936 103.181 91.1876C103.01 90.5848 103.004 89.9471 103.164 89.3411C103.323 88.7352 103.643 88.1832 104.089 87.7429C104.54 89.0772 106.385 90.8218 112.622 91.5601C115.626 91.5601 118.869 90.5171 122.826 88.2783C127.87 85.4258 141.277 75.8952 140.472 77.3367C132.828 84.2109 126.701 88.9057 121.742 91.6879C117.843 93.8796 114.644 94.8974 111.672 94.8974ZM174.44 84.5679C170.714 84.5679 164.082 79.3481 161.782 77.3421C161.687 75.1691 167.43 82.0471 174.857 81.1734C175.031 81.2131 175.209 81.2341 175.387 81.236C177.947 81.236 179.859 80.3832 180.902 78.7797C180.763 82.5125 178.468 84.5684 174.44 84.5684L174.44 84.5679ZM101.576 81.9639C96.4562 82.1019 91.4121 80.7055 87.093 77.9543C85.728 77.0711 84.5095 75.9801 83.4815 74.721C82.8451 74.0333 82.4268 73.1727 82.2794 72.2476C82.2794 71.5332 82.7829 70.9663 83.8172 70.5134C85.3663 72.73 87.4507 74.5193 89.8769 75.7151C93.7941 77.696 98.1339 78.697 102.524 78.6321C126.512 76.5854 134.582 70.0726 132.158 72.5053C127.178 75.1378 114.411 81.3231 103.423 81.9126C102.803 81.9473 102.182 81.9647 101.576 81.9647L101.576 81.9639ZM98.8672 64.4933C98.3466 64.4933 97.8062 64.4876 97.2601 64.4772C86.9152 64.3589 76.6465 62.692 66.796 59.532C59.7997 57.2566 53.2581 53.7699 47.4696 49.2309C43.3557 45.988 39.8415 42.0505 37.0861 37.5965C35.3214 34.8712 34.0873 31.8374 33.449 28.6544C32.5097 22.7504 33.5344 21.7649 34.0179 21.6152C34.0627 22.858 34.1894 24.0964 34.3972 25.3225C35.0356 28.5055 36.2696 31.5393 38.0344 34.2646C40.7898 38.7186 44.304 42.6561 48.4179 45.8989C60.3514 55.4844 83.0878 64.1126 115.17 61.9494C109.932 63.7557 104.413 64.617 98.8731 64.493L98.8672 64.4933ZM91.9449 44.7507C89.8713 44.7507 87.773 44.656 85.7042 44.4806C78.6586 43.7383 71.7632 41.9497 65.2457 39.1737C59.658 36.8071 54.3906 33.7467 49.5679 30.0647C45.7961 27.2446 42.3991 23.9558 39.4587 20.2778C37.1832 17.3467 35.7921 15.2704 35.7078 12.9391C57.8823 42.7089 96.8592 44.7511 91.9497 44.7511L91.9449 44.7507Z" fill="#AD5F00"/>
<path opacity="0.8" d="M103.562 88.5036C104.428 87.1067 106.042 86.0633 106.906 86.0633C119.59 84.2742 126.552 80.0818 130.16 76.8787C127.83 79.4194 125.04 81.4977 121.939 83.0043C116.605 85.5699 110.886 87.2433 105.01 87.9578C104.488 88.0107 103.989 88.1988 103.562 88.5036ZM178.209 83.7871C178.969 82.2291 179.202 80.4663 178.873 78.7645C178.486 76.8696 177.083 75.2856 174.458 73.7675C171.591 72.2659 168.614 70.9829 165.553 69.9296C161.826 68.598 158.179 67.0517 154.631 65.2984C150.923 63.4816 147.573 61.0128 144.74 58.01C142.067 54.8489 139.729 51.4189 137.765 47.7752C131.594 37.2496 125.214 26.3666 101.903 26.3666C100.702 26.3666 99.4525 26.396 98.1849 26.4547C97.5506 26.4737 96.8992 26.4832 96.2506 26.4832C83.4363 26.4832 70.1535 22.8501 60.014 19.6847C57.2218 18.8138 54.6095 17.956 52.0789 17.126H52.0657C44.8435 14.7568 39.1395 12.8899 35.9078 12.8899H35.6859C35.6154 12.4674 35.7156 12.0342 35.9645 11.6854C36.2134 11.3367 36.5906 11.1009 37.0133 11.0299C37.1123 11.0132 37.2126 11.0059 37.3129 11.0082C37.4676 10.9977 37.6325 10.992 37.8031 10.992C41.0343 10.992 46.7384 12.8618 53.961 15.228C56.4935 16.0583 59.1113 16.9158 61.9095 17.7867C72.0495 20.9519 85.329 24.5853 98.1461 24.5853C98.7955 24.5853 99.446 24.5759 100.08 24.5568C101.349 24.498 102.601 24.4686 103.8 24.4686C108.725 24.3814 113.636 25.0145 118.378 26.3478C121.918 27.3663 125.24 29.0298 128.175 31.2547C133.46 35.2993 136.614 40.6782 139.661 45.8799C141.626 49.5236 143.963 52.9536 146.637 56.1146C152.244 62.2935 160.322 65.3429 167.449 68.0334C170.51 69.0865 173.487 70.3695 176.355 71.8713C178.98 73.3875 180.383 74.9767 180.77 76.8674C181.226 80.1946 180.343 82.5866 178.214 83.786L178.209 83.7871ZM82.2557 72.3384V72.3223C82.2557 71.2012 83.4836 70.4365 86.1193 69.9181C89.5168 69.3882 92.9455 69.0834 96.3832 69.0055C100.353 68.8617 104.305 68.3836 108.194 67.5763C110.332 67.1654 112.385 66.4002 114.27 65.3125C113.802 66.209 112.557 67.512 109.285 68.6369C105.845 69.819 100.867 70.5815 94.4873 70.9018C88.7983 71.1548 84.5317 71.496 82.2561 72.3395L82.2557 72.3384ZM89.0824 50.0514C83.1138 50.0479 77.1682 49.3117 71.3791 47.8593C66.0234 46.5133 60.8317 44.5833 55.8976 42.1041C47.417 37.9428 39.8939 32.0657 33.8055 24.8453C33.6188 24.4878 33.3692 24.1668 33.0688 23.8976C33.1684 22.4548 33.5704 21.6602 34.1993 21.6602C34.6913 21.6602 35.2669 22.1538 35.7003 22.949C45.1145 34.5777 65.241 48.1566 90.9778 48.1566C102.903 48.1566 108.173 46.484 110.493 45.0797C110.223 45.7241 109.314 46.9646 106.26 48.0448C102.497 49.3754 96.7168 50.0511 89.0803 50.0511L89.0824 50.0514Z" fill="white"/>
<path d="M93.7492 107.426C98.9935 108.642 104.297 109.585 109.639 110.253C114.971 110.942 120.32 111.4 125.686 111.626C136.397 112.136 147.131 111.482 157.701 109.676C162.97 108.774 168.164 107.484 173.243 105.815C178.334 104.187 183.276 102.126 188.016 99.6551C197.559 94.6998 206.154 88.1039 213.408 80.1693L210.793 83.2549L209.465 84.7892L208.039 86.2268C207.084 87.182 206.143 88.1534 205.172 89.0972L202.119 91.7758C197.971 95.2807 193.479 98.3574 188.712 100.959C179.137 106.153 168.769 109.728 158.027 111.538C152.676 112.451 147.274 113.04 141.852 113.303C125.605 113.983 109.355 111.998 93.7501 107.427L93.7492 107.426Z" fill="black"/>
<path d="M186.033 37.9073C189.491 40.706 192.229 43.0587 190.088 45.7017C187.947 48.3447 183.405 48.2187 179.946 45.4194C176.487 42.6201 175.419 38.2068 177.562 35.5629C179.705 32.919 182.569 35.1041 186.033 37.9073Z" fill="#FFFFD1"/>
<path d="M145.064 116.572C154.226 115.604 163.255 113.642 171.992 110.722L175.218 109.553L178.37 108.218C179.432 107.804 180.456 107.305 181.495 106.849L183.064 106.178C183.595 105.974 184.114 105.746 184.622 105.491C188.82 103.704 192.791 101.546 196.983 99.435L197.157 99.6596C196.341 100.499 195.476 101.294 194.607 102.091C194.163 102.477 193.74 102.891 193.27 103.25L191.848 104.29C190.893 104.978 189.937 105.68 188.932 106.293L185.868 108.049C181.66 110.15 177.232 111.777 172.664 112.899C168.16 114.125 163.587 115.085 158.971 115.775C154.368 116.446 149.725 116.808 145.074 116.859L145.064 116.572Z" fill="#FFFB92"/>
<defs>
<radialGradient id="paint0_radial" cx="0" cy="0" r="1" gradientUnits="userSpaceOnUse" gradientTransform="translate(132.018 -129.702) scale(65.1831 56.4144)">
<stop stop-color="#FFDE00"/>
<stop offset="1" stop-color="#FFB200"/>
</radialGradient>
<radialGradient id="paint1_radial" cx="0" cy="0" r="1" gradientUnits="userSpaceOnUse" gradientTransform="translate(117.5 -112.535) scale(133.058 88.829)">
<stop stop-color="#FFFD00"/>
<stop offset="1" stop-color="#FFB200" stop-opacity="0"/>
</radialGradient>
<linearGradient id="paint2_linear" x1="-300.746" y1="414.686" x2="-300.746" y2="413.769" gradientUnits="userSpaceOnUse">
<stop stop-color="#FFFFD1"/>
<stop offset="1" stop-color="#FFFF94"/>
</linearGradient>
<linearGradient id="paint3_linear" x1="-301.649" y1="414.506" x2="-301.591" y2="414.884" gradientUnits="userSpaceOnUse">
<stop stop-color="#FFB200"/>
<stop offset="1" stop-color="#FFDE00"/>
</linearGradient>
</defs>
</svg>
